<?xml version="1.0" encoding="UTF-8" standalone="no"?>
<!DOCTYPE svg PUBLIC "-//W3C//DTD SVG 1.1//EN"
 "http://www.w3.org/Graphics/SVG/1.1/DTD/svg11.dtd">
<!-- Generated by graphviz version 2.40.1 (20161225.0304)
 -->
<!-- Title: dependencies Pages: 1 -->
<svg width="504pt" height="211pt"
 viewBox="0.00 0.00 504.00 211.00" xmlns="http://www.w3.org/2000/svg" xmlns:xlink="http://www.w3.org/1999/xlink">
<g id="graph0" class="graph" transform="scale(1 1) rotate(0) translate(4 207)">
<title>dependencies</title>
<polygon fill="#ffffff" stroke="transparent" points="-4,4 -4,-207 500,-207 500,4 -4,4"/>
<text text-anchor="start" x="227.0091" y="-42.4" font-family="sans-serif" font-weight="bold" font-size="14.00" fill="#000000">Legend</text>
<polygon fill="#ffffb3" stroke="transparent" points="14,-10 14,-30 34,-30 34,-10 14,-10"/>
<text text-anchor="start" x="37.629" y="-15.4" font-family="sans-serif" font-size="14.00" fill="#000000"> &#160;Declarations</text>
<polygon fill="#8dd3c7" stroke="transparent" points="127,-10 127,-30 147,-30 147,-10 127,-10"/>
<text text-anchor="start" x="150.7251" y="-15.4" font-family="sans-serif" font-size="14.00" fill="#000000"> &#160;Module</text>
<polygon fill="#80b1d3" stroke="transparent" points="213,-10 213,-30 233,-30 233,-10 213,-10"/>
<text text-anchor="start" x="236.7812" y="-15.4" font-family="sans-serif" font-size="14.00" fill="#000000"> &#160;Bootstrap</text>
<polygon fill="#fdb462" stroke="transparent" points="310,-10 310,-30 330,-30 330,-10 310,-10"/>
<text text-anchor="start" x="333.6732" y="-15.4" font-family="sans-serif" font-size="14.00" fill="#000000"> &#160;Providers</text>
<polygon fill="#fb8072" stroke="transparent" points="406,-10 406,-30 426,-30 426,-10 406,-10"/>
<text text-anchor="start" x="429.7258" y="-15.4" font-family="sans-serif" font-size="14.00" fill="#000000"> &#160;Exports</text>
<g id="clust1" class="cluster">
<title>cluster_SvogvCoreModule</title>
<polygon fill="none" stroke="#000000" stroke-dasharray="1,5" points="59,-70 59,-195 437,-195 437,-70 59,-70"/>
</g>
<g id="clust2" class="cluster">
<title>cluster_SvogvCoreModule_declarations</title>
<polygon fill="none" stroke="#000000" points="285,-78 285,-130 429,-130 429,-78 285,-78"/>
</g>
<g id="clust7" class="cluster">
<title>cluster_SvogvCoreModule_providers</title>
<polygon fill="none" stroke="#000000" points="67,-78 67,-130 277,-130 277,-78 67,-78"/>
</g>
<!-- wd.FormatDataPipe -->
<g id="node1" class="node">
<title>wd.FormatDataPipe</title>
<polygon fill="#ffffb3" stroke="#000000" points="421.3603,-122 292.6397,-122 292.6397,-86 421.3603,-86 421.3603,-122"/>
<text text-anchor="middle" x="357" y="-99.8" font-family="Times,serif" font-size="14.00" fill="#000000">wd.FormatDataPipe</text>
</g>
<!-- SvogvCoreModule -->
<g id="node2" class="node">
<title>SvogvCoreModule</title>
<polygon fill="#8dd3c7" stroke="#000000" points="325.045,-187 322.045,-191 301.045,-191 298.045,-187 202.955,-187 202.955,-151 325.045,-151 325.045,-187"/>
<text text-anchor="middle" x="264" y="-164.8" font-family="Times,serif" font-size="14.00" fill="#000000">SvogvCoreModule</text>
</g>
<!-- wd.FormatDataPipe&#45;&gt;SvogvCoreModule -->
<g id="edge1" class="edge">
<title>wd.FormatDataPipe&#45;&gt;SvogvCoreModule</title>
<path fill="none" stroke="#000000" d="M309.0461,-122.1061C309.0461,-122.1061 309.0461,-140.991 309.0461,-140.991"/>
<polygon fill="#000000" stroke="#000000" points="305.5462,-140.9909 309.0461,-150.991 312.5462,-140.991 305.5462,-140.9909"/>
</g>
<!-- FormValidatorService -->
<g id="node3" class="node">
<title>FormValidatorService</title>
<ellipse fill="#fdb462" stroke="#000000" cx="172" cy="-104" rx="97.2664" ry="18"/>
<text text-anchor="middle" x="172" y="-99.8" font-family="Times,serif" font-size="14.00" fill="#000000">FormValidatorService</text>
</g>
<!-- FormValidatorService&#45;&gt;SvogvCoreModule -->
<g id="edge2" class="edge">
<title>FormValidatorService&#45;&gt;SvogvCoreModule</title>
<path fill="none" stroke="#000000" d="M236.0555,-117.7848C236.0555,-117.7848 236.0555,-140.5475 236.0555,-140.5475"/>
<polygon fill="#000000" stroke="#000000" points="232.5556,-140.5474 236.0555,-150.5475 239.5556,-140.5475 232.5556,-140.5474"/>
</g>
</g>
</svg>
