<?xml version="1.0" encoding="UTF-8" standalone="no"?>
<!DOCTYPE svg PUBLIC "-//W3C//DTD SVG 1.1//EN"
 "http://www.w3.org/Graphics/SVG/1.1/DTD/svg11.dtd">
<!-- Generated by graphviz version 2.40.1 (20161225.0304)
 -->
<!-- Title: dependencies Pages: 1 -->
<svg width="539pt" height="211pt"
 viewBox="0.00 0.00 539.00 211.00" xmlns="http://www.w3.org/2000/svg" xmlns:xlink="http://www.w3.org/1999/xlink">
<g id="graph0" class="graph" transform="scale(1 1) rotate(0) translate(4 207)">
<title>dependencies</title>
<polygon fill="#ffffff" stroke="transparent" points="-4,4 -4,-207 535,-207 535,4 -4,4"/>
<text text-anchor="start" x="244.5091" y="-42.4" font-family="sans-serif" font-weight="bold" font-size="14.00" fill="#000000">Legend</text>
<polygon fill="#ffffb3" stroke="transparent" points="31.5,-10 31.5,-30 51.5,-30 51.5,-10 31.5,-10"/>
<text text-anchor="start" x="55.129" y="-15.4" font-family="sans-serif" font-size="14.00" fill="#000000"> &#160;Declarations</text>
<polygon fill="#8dd3c7" stroke="transparent" points="144.5,-10 144.5,-30 164.5,-30 164.5,-10 144.5,-10"/>
<text text-anchor="start" x="168.2251" y="-15.4" font-family="sans-serif" font-size="14.00" fill="#000000"> &#160;Module</text>
<polygon fill="#80b1d3" stroke="transparent" points="230.5,-10 230.5,-30 250.5,-30 250.5,-10 230.5,-10"/>
<text text-anchor="start" x="254.2812" y="-15.4" font-family="sans-serif" font-size="14.00" fill="#000000"> &#160;Bootstrap</text>
<polygon fill="#fdb462" stroke="transparent" points="327.5,-10 327.5,-30 347.5,-30 347.5,-10 327.5,-10"/>
<text text-anchor="start" x="351.1732" y="-15.4" font-family="sans-serif" font-size="14.00" fill="#000000"> &#160;Providers</text>
<polygon fill="#fb8072" stroke="transparent" points="423.5,-10 423.5,-30 443.5,-30 443.5,-10 423.5,-10"/>
<text text-anchor="start" x="447.2258" y="-15.4" font-family="sans-serif" font-size="14.00" fill="#000000"> &#160;Exports</text>
<g id="clust1" class="cluster">
<title>cluster_SvogvModule</title>
<polygon fill="none" stroke="#000000" stroke-dasharray="1,5" points="8,-70 8,-195 523,-195 523,-70 8,-70"/>
</g>
<g id="clust6" class="cluster">
<title>cluster_SvogvModule_providers</title>
<polygon fill="none" stroke="#000000" points="16,-78 16,-130 515,-130 515,-78 16,-78"/>
</g>
<!-- FormValidatorService -->
<g id="node1" class="node">
<title>FormValidatorService</title>
<ellipse fill="#fdb462" stroke="#000000" cx="410" cy="-104" rx="97.2664" ry="18"/>
<text text-anchor="middle" x="410" y="-99.8" font-family="Times,serif" font-size="14.00" fill="#000000">FormValidatorService</text>
</g>
<!-- SvogvModule -->
<g id="node3" class="node">
<title>SvogvModule</title>
<polygon fill="#8dd3c7" stroke="#000000" points="331.833,-187 328.833,-191 307.833,-191 304.833,-187 236.167,-187 236.167,-151 331.833,-151 331.833,-187"/>
<text text-anchor="middle" x="284" y="-164.8" font-family="Times,serif" font-size="14.00" fill="#000000">SvogvModule</text>
</g>
<!-- FormValidatorService&#45;&gt;SvogvModule -->
<g id="edge1" class="edge">
<title>FormValidatorService&#45;&gt;SvogvModule</title>
<path fill="none" stroke="#000000" d="M322.1415,-111.9703C322.1415,-111.9703 322.1415,-140.8723 322.1415,-140.8723"/>
<polygon fill="#000000" stroke="#000000" points="318.6416,-140.8722 322.1415,-150.8723 325.6416,-140.8723 318.6416,-140.8722"/>
</g>
<!-- FormValidatorFromJsonService -->
<g id="node2" class="node">
<title>FormValidatorFromJsonService</title>
<ellipse fill="#fdb462" stroke="#000000" cx="159" cy="-104" rx="135.4499" ry="18"/>
<text text-anchor="middle" x="159" y="-99.8" font-family="Times,serif" font-size="14.00" fill="#000000">FormValidatorFromJsonService</text>
</g>
<!-- FormValidatorFromJsonService&#45;&gt;SvogvModule -->
<g id="edge2" class="edge">
<title>FormValidatorFromJsonService&#45;&gt;SvogvModule</title>
<path fill="none" stroke="#000000" d="M265.4044,-115.3221C265.4044,-115.3221 265.4044,-140.9424 265.4044,-140.9424"/>
<polygon fill="#000000" stroke="#000000" points="261.9045,-140.9424 265.4044,-150.9424 268.9045,-140.9425 261.9045,-140.9424"/>
</g>
</g>
</svg>
